<svg xmlns="http://www.w3.org/2000/svg" viewBox="0 0 8.4 9.58"><defs><style>.cls-1{fill:none;stroke:#3c9;stroke-linecap:round;stroke-linejoin:round;stroke-width:0.75px;}.cls-2{fill:#3c9;}.cls-2,.cls-3,.cls-4{fill-rule:evenodd;}.cls-3{fill:#fc0;}.cls-4{fill:#fff;}</style></defs><title>Asset 9</title><g id="Layer_2" data-name="Layer 2"><g id="Layer_1-2" data-name="Layer 1"><path class="cls-1" d="M6.22.38V1.53m-4,0V.38"/><path class="cls-2" d="M1.33,1.18H7.07A1.33,1.33,0,0,1,8.4,2.51V8.25A1.34,1.34,0,0,1,7.07,9.58H1.33A1.34,1.34,0,0,1,0,8.25V2.51A1.33,1.33,0,0,1,1.33,1.18Z"/><path class="cls-3" d="M1.29,2.06H2.44a.26.26,0,0,1,.26.26V3.47a.27.27,0,0,1-.26.27H1.29A.27.27,0,0,1,1,3.47V2.32a.26.26,0,0,1,.27-.26Z"/><path class="cls-4" d="M3.63,2.06H4.77A.26.26,0,0,1,5,2.32V3.47a.27.27,0,0,1-.27.27H3.63a.27.27,0,0,1-.27-.27V2.32a.26.26,0,0,1,.27-.26Z"/><path class="cls-3" d="M1.29,4.54H2.44a.26.26,0,0,1,.26.26V6a.27.27,0,0,1-.26.27H1.29A.27.27,0,0,1,1,6V4.8a.27.27,0,0,1,.27-.26Z"/><path class="cls-3" d="M3.63,4.54H4.77A.27.27,0,0,1,5,4.8V6a.27.27,0,0,1-.27.27H3.63A.27.27,0,0,1,3.36,6V4.8a.27.27,0,0,1,.27-.26Z"/><path class="cls-3" d="M6,4.54H7.11a.27.27,0,0,1,.27.26V6a.27.27,0,0,1-.27.27H6A.27.27,0,0,1,5.7,6V4.8A.26.26,0,0,1,6,4.54Z"/><path class="cls-4" d="M3.63,7H4.77A.27.27,0,0,1,5,7.28V8.43a.27.27,0,0,1-.27.27H3.63a.27.27,0,0,1-.27-.27V7.28A.27.27,0,0,1,3.63,7Z"/><path class="cls-3" d="M6,7H7.11a.27.27,0,0,1,.27.26V8.43a.27.27,0,0,1-.27.27H6a.27.27,0,0,1-.26-.27V7.28A.26.26,0,0,1,6,7Z"/></g></g></svg>