<svg xmlns="http://www.w3.org/2000/svg" viewBox="0 0 8.4 8.4"><defs><style>.cls-1{fill:#3c9;}.cls-1,.cls-2,.cls-3{fill-rule:evenodd;}.cls-2{fill:#fc0;}.cls-3{fill:#fff;}</style></defs><title>Asset 5</title><g id="Layer_2" data-name="Layer 2"><g id="Layer_1-2" data-name="Layer 1"><path class="cls-1" d="M1.2,0h6A1.2,1.2,0,0,1,8.4,1.2v6A1.2,1.2,0,0,1,7.2,8.4h-6A1.2,1.2,0,0,1,0,7.2v-6A1.2,1.2,0,0,1,1.2,0Z"/><path class="cls-2" d="M1.59,1.12H3.33a.6.6,0,0,1,.6.6V3.26a.6.6,0,0,1-.6.6H1.59a.6.6,0,0,1-.6-.6V1.72a.6.6,0,0,1,.6-.6Z"/><path class="cls-3" d="M5.07,1.12H6.81a.6.6,0,0,1,.6.6V3.26a.6.6,0,0,1-.6.6H5.07a.6.6,0,0,1-.6-.6V1.72a.6.6,0,0,1,.6-.6Z"/><path class="cls-3" d="M1.59,4.54H3.33a.6.6,0,0,1,.6.6V6.68a.6.6,0,0,1-.6.6H1.59a.6.6,0,0,1-.6-.6V5.14a.6.6,0,0,1,.6-.6Z"/><path class="cls-2" d="M5.07,4.54H6.81a.6.6,0,0,1,.6.6V6.68a.6.6,0,0,1-.6.6H5.07a.6.6,0,0,1-.6-.6V5.14a.6.6,0,0,1,.6-.6Z"/></g></g></svg>