<svg xmlns="http://www.w3.org/2000/svg" viewBox="0 0 21.67 21.67"><defs><style>.cls-1{fill:#fc0;}.cls-1,.cls-2{fill-rule:evenodd;}.cls-2{fill:#3c9;}</style></defs><title>Asset 4</title><g id="Layer_2" data-name="Layer 2"><g id="Layer_1-2" data-name="Layer 1"><path class="cls-1" d="M10.84,0A10.84,10.84,0,1,1,0,10.84,10.83,10.83,0,0,1,10.84,0Z"/><path class="cls-2" d="M16.13,9a1.88,1.88,0,1,1-1.87,1.88A1.88,1.88,0,0,1,16.13,9Z"/><path class="cls-2" d="M10.84,9A1.88,1.88,0,1,1,9,10.84,1.88,1.88,0,0,1,10.84,9Z"/><path class="cls-2" d="M5.54,9a1.88,1.88,0,1,1-1.87,1.88A1.88,1.88,0,0,1,5.54,9Z"/></g></g></svg>