<svg xmlns="http://www.w3.org/2000/svg" viewBox="0 0 18.1 18.1"><defs><style>.cls-1,.cls-2{fill:none;stroke:#3c9;stroke-miterlimit:2.61;}.cls-1{stroke-width:1.5px;}.cls-2{stroke-linecap:round;}.cls-3{fill:#3c9;}</style></defs><title>Asset 10</title><g id="Layer_2" data-name="Layer 2"><g id="Layer_1-2" data-name="Layer 1"><path class="cls-1" d="M9.05.75a8.3,8.3,0,1,1-8.3,8.3A8.3,8.3,0,0,1,9.05.75Z"/><path class="cls-2" d="M8.09,3.07V15M10,3.07V15"/><path class="cls-3" d="M11.75,6.2a1,1,0,0,1-.22.23.45.45,0,0,1-.27.07.79.79,0,0,1-.34-.09l-.4-.21A4.14,4.14,0,0,0,10,6a2.11,2.11,0,0,0-.64-.09,1.35,1.35,0,0,0-.94.27.89.89,0,0,0-.3.72.68.68,0,0,0,.32.6,3.06,3.06,0,0,0,.79.38c.33.11.67.23,1,.34a4.28,4.28,0,0,1,1,.48,2.32,2.32,0,0,1,1.11,2.11,3.43,3.43,0,0,1-.23,1.25,2.69,2.69,0,0,1-.68,1,3,3,0,0,1-1.09.68A4.18,4.18,0,0,1,9,14a4.88,4.88,0,0,1-.93-.09,5.47,5.47,0,0,1-.9-.26,5.16,5.16,0,0,1-.82-.39,4,4,0,0,1-.67-.52l.66-1.05a1,1,0,0,1,.21-.19.54.54,0,0,1,.28-.08.73.73,0,0,1,.4.13l.46.28a3.6,3.6,0,0,0,.59.27,2.3,2.3,0,0,0,.79.12,1.52,1.52,0,0,0,.94-.26,1,1,0,0,0,.34-.84.79.79,0,0,0-.32-.69A3.06,3.06,0,0,0,9.22,10c-.32-.1-.67-.21-1-.31a4.15,4.15,0,0,1-1-.46,2.48,2.48,0,0,1-.8-.84A2.78,2.78,0,0,1,6,7a2.66,2.66,0,0,1,.22-1.07A2.84,2.84,0,0,1,6.9,5a3.58,3.58,0,0,1,1-.64,3.93,3.93,0,0,1,1.41-.24A5.2,5.2,0,0,1,11,4.38a3.63,3.63,0,0,1,1.3.76L11.75,6.2Z"/></g></g></svg>