<svg xmlns="http://www.w3.org/2000/svg" viewBox="0 0 11.66 11.26"><defs><style>.cls-1{fill:#fc0;stroke:#fff;stroke-miterlimit:2.61;stroke-width:1.5px;fill-rule:evenodd;}</style></defs><title>Asset 13</title><g id="Layer_2" data-name="Layer 2"><g id="Layer_1-2" data-name="Layer 1"><path class="cls-1" d="M2.7,1.49H7.82a2,2,0,0,1,1.95,2V8.56a2,2,0,0,1-1.95,1.95H2.7A2,2,0,0,1,.75,8.56V3.44a2,2,0,0,1,2-1.95Z"/><path class="cls-1" d="M10.59,1.07h0a1.09,1.09,0,0,1,0,1.55L6.75,6.46l-1,.23-1,.23.24-1,.23-1L9,1.07a1.09,1.09,0,0,1,1.55,0Z"/></g></g></svg>