<svg xmlns="http://www.w3.org/2000/svg" viewBox="0 0 8.4 8.4"><defs><style>.cls-1{fill:#3c9;}.cls-1,.cls-3,.cls-5{fill-rule:evenodd;}.cls-2,.cls-3{fill:#fc0;}.cls-4,.cls-5{fill:#fff;}</style></defs><title>Asset 2</title><g id="Layer_2" data-name="Layer 2"><g id="Layer_1-2" data-name="Layer 1"><path class="cls-1" d="M1.2,0h6A1.2,1.2,0,0,1,8.4,1.2v6A1.2,1.2,0,0,1,7.2,8.4h-6A1.2,1.2,0,0,1,0,7.2v-6A1.2,1.2,0,0,1,1.2,0Z"/><path class="cls-2" d="M6.5,3.58H2.82v-1H6.5v1Z"/><path class="cls-3" d="M2.31,2.2a.88.88,0,1,1-.88.88.88.88,0,0,1,.88-.88Z"/><path class="cls-4" d="M1.9,4.82H5.58v1H1.9v-1Z"/><path class="cls-5" d="M6.09,4.44A.88.88,0,1,0,7,5.32a.88.88,0,0,0-.88-.88Z"/></g></g></svg>