<svg xmlns="http://www.w3.org/2000/svg" viewBox="0 0 13.98 8.54"><defs><style>.cls-1{fill:#093;}.cls-1,.cls-2,.cls-3{fill-rule:evenodd;}.cls-2{fill:#fff;}.cls-3{fill:red;}</style></defs><title>Asset 12</title><g id="Layer_2" data-name="Layer 2"><g id="Layer_1-2" data-name="Layer 1"><polygon class="cls-1" points="0 0 13.98 0 13.98 2.85 0 2.85 0 0 0 0"/><polygon class="cls-2" points="0 2.85 13.98 2.85 13.98 5.7 0 5.7 0 2.85 0 2.85"/><polygon class="cls-3" points="0 5.7 13.98 5.7 13.98 8.54 0 8.54 0 5.7 0 5.7"/><path class="cls-3" d="M6.89,3.68c0,.19,0,.39,0,.58s0,.51,0,.56l-.1-.09a.81.81,0,0,1-.17-.93.61.61,0,0,1,.07-.14.6.6,0,0,0-.21.28.79.79,0,0,0,.09.77,1,1,0,0,0,.25.23.72.72,0,0,1-.31,0h0a.71.71,0,0,0,.25,0h.1L7,5.1,7.06,5h.09A.69.69,0,0,0,7.4,5l0,0a.72.72,0,0,1-.31,0l.07-.05.13-.11,0-.07a.79.79,0,0,0,.09-.77.8.8,0,0,0-.08-.16s-.09-.11-.13-.12a.5.5,0,0,1,.07.13.83.83,0,0,1-.07.82,1.34,1.34,0,0,1-.2.21,1.34,1.34,0,0,1,0-.28c0-.09,0-.18,0-.28s0-.38,0-.58A.55.55,0,0,1,7,3.6a.55.55,0,0,1-.1.08Z"/><path class="cls-3" d="M7.52,4.84a.75.75,0,0,0,.24-.26.64.64,0,0,0-.23-.86.49.49,0,0,0-.18-.08l.08.08a.88.88,0,0,1,.12.15.85.85,0,0,1,0,.83l-.08.14Z"/><path class="cls-3" d="M6.46,4.84l0-.07a.85.85,0,0,1-.09-.22.7.7,0,0,1,0-.38.93.93,0,0,1,.21-.42l.11-.11a.58.58,0,0,0-.18.08.38.38,0,0,0-.14.11l0,.06a.54.54,0,0,0-.11.27.68.68,0,0,0,.17.57.85.85,0,0,0,.14.11Z"/><path class="cls-3" d="M7,3.57c.15.12.27,0,.21-.13-.07.11-.11.13-.21,0-.09.08-.14.08-.21,0a.12.12,0,0,0,0,.15.13.13,0,0,0,.17,0Z"/></g></g></svg>