<svg xmlns="http://www.w3.org/2000/svg" viewBox="0 0 13.77 10.43"><defs><style>.cls-1{fill:#3c9;}.cls-1,.cls-2{fill-rule:evenodd;}.cls-2{fill:#fc0;}</style></defs><title>Asset 5</title><g id="Layer_2" data-name="Layer 2"><g id="Layer_1-2" data-name="Layer 1"><path class="cls-1" d="M5.22,0h7.46a1.09,1.09,0,0,1,1.09,1.09V5.22a5.23,5.23,0,0,1-5.22,5.21H5.22A5.23,5.23,0,0,1,0,5.22H0A5.24,5.24,0,0,1,5.22,0Z"/><path class="cls-2" d="M4,1.65h6.49a.17.17,0,0,1,.18.17v.65a.83.83,0,0,1-.83.82H4a.82.82,0,0,1-.82-.82h0A.82.82,0,0,1,4,1.65Z"/><path class="cls-2" d="M4,4.39H8.88a.18.18,0,0,1,.17.18v.65A.83.83,0,0,1,8.22,6H4a.82.82,0,0,1-.82-.82h0A.83.83,0,0,1,4,4.39Z"/><path class="cls-2" d="M4,7.14h6.49a.18.18,0,0,1,.18.17V8a.83.83,0,0,1-.83.83H4A.83.83,0,0,1,3.14,8h0A.82.82,0,0,1,4,7.14Z"/></g></g></svg>