<svg xmlns="http://www.w3.org/2000/svg" viewBox="0 0 13.96 13.31"><defs><style>.cls-1{fill:#fc0;fill-rule:evenodd;}</style></defs><title>Asset 9</title><g id="Layer_2" data-name="Layer 2"><g id="Layer_1-2" data-name="Layer 1"><path class="cls-1" d="M1.54,0h12.1A.32.32,0,0,1,14,.32V1.54a1.54,1.54,0,0,1-1.54,1.53H1.54A1.54,1.54,0,0,1,0,1.54H0A1.54,1.54,0,0,1,1.54,0Z"/><path class="cls-1" d="M1.54,5.12H10.7a.32.32,0,0,1,.32.32V6.66A1.54,1.54,0,0,1,9.48,8.19H1.54A1.54,1.54,0,0,1,0,6.66H0A1.54,1.54,0,0,1,1.54,5.12Z"/><path class="cls-1" d="M1.54,10.24h12.1a.32.32,0,0,1,.32.32v1.22a1.54,1.54,0,0,1-1.54,1.53H1.54A1.54,1.54,0,0,1,0,11.78H0a1.54,1.54,0,0,1,1.54-1.54Z"/></g></g></svg>