<svg xmlns="http://www.w3.org/2000/svg" viewBox="0 0 18.26 14.76"><defs><style>.cls-1{fill:#037ad6;fill-rule:evenodd;}</style></defs><title>Asset 7</title><g id="Layer_2" data-name="Layer 2"><g id="Layer_1-2" data-name="Layer 1"><path class="cls-1" d="M1.7,0H16.56a1.7,1.7,0,0,1,1.7,1.7h0a1.71,1.71,0,0,1-1.7,1.71H1.7A1.71,1.71,0,0,1,0,1.7H0A1.71,1.71,0,0,1,1.7,0Z"/><path class="cls-1" d="M1.7,5.68H16.56a1.7,1.7,0,0,1,1.7,1.7h0a1.7,1.7,0,0,1-1.7,1.7H1.7A1.71,1.71,0,0,1,0,7.38H0a1.7,1.7,0,0,1,1.7-1.7Z"/><path class="cls-1" d="M1.7,11.35H16.56a1.7,1.7,0,0,1,1.7,1.7h0a1.71,1.71,0,0,1-1.7,1.71H1.7A1.71,1.71,0,0,1,0,13.05H0a1.71,1.71,0,0,1,1.7-1.7Z"/></g></g></svg>