<svg viewBox="0 0 20 20" fill="none" xmlns="http://www.w3.org/2000/svg">
<path d="M17.1429 0H2.85714C1.27919 0 0 1.27919 0 2.85714V17.1429C0 18.7208 1.27919 20 2.85714 20H17.1429C18.7208 20 20 18.7208 20 17.1429V2.85714C20 1.27919 18.7208 0 17.1429 0Z" fill="#FF3B30"/>
<path d="M11.0449 11.7324C11.0449 11.4316 10.9375 11.1973 10.7227 11.0293C10.5117 10.8613 10.1387 10.6875 9.60352 10.5078C9.06836 10.3281 8.63086 10.1543 8.29102 9.98633C7.18555 9.44336 6.63281 8.69727 6.63281 7.74805C6.63281 7.27539 6.76953 6.85938 7.04297 6.5C7.32031 6.13672 7.71094 5.85547 8.21484 5.65625C8.71875 5.45312 9.28516 5.35156 9.91406 5.35156C10.5273 5.35156 11.0762 5.46094 11.5605 5.67969C12.0488 5.89844 12.4277 6.21094 12.6973 6.61719C12.9668 7.01953 13.1016 7.48047 13.1016 8H11.0508C11.0508 7.65234 10.9434 7.38281 10.7285 7.19141C10.5176 7 10.2305 6.9043 9.86719 6.9043C9.5 6.9043 9.20898 6.98633 8.99414 7.15039C8.7832 7.31055 8.67773 7.51562 8.67773 7.76562C8.67773 7.98438 8.79492 8.18359 9.0293 8.36328C9.26367 8.53906 9.67578 8.72266 10.2656 8.91406C10.8555 9.10156 11.3398 9.30469 11.7188 9.52344C12.6406 10.0547 13.1016 10.7871 13.1016 11.7207C13.1016 12.4668 12.8203 13.0527 12.2578 13.4785C11.6953 13.9043 10.9238 14.1172 9.94336 14.1172C9.25195 14.1172 8.625 13.9941 8.0625 13.748C7.50391 13.498 7.08203 13.1582 6.79688 12.7285C6.51562 12.2949 6.375 11.7969 6.375 11.2344H8.4375C8.4375 11.6914 8.55469 12.0293 8.78906 12.248C9.02734 12.4629 9.41211 12.5703 9.94336 12.5703C10.2832 12.5703 10.5508 12.498 10.7461 12.3535C10.9453 12.2051 11.0449 11.998 11.0449 11.7324Z" fill="white"/>
</svg>
