<svg xmlns="http://www.w3.org/2000/svg" viewBox="0 0 2.47 2.37"><defs><style>.cls-1{fill:#fc0;}</style></defs><title>Asset 1</title><g id="Layer_2" data-name="Layer 2"><g id="Layer_1-2" data-name="Layer 1"><path class="cls-1" d="M1.41.12,1.63.7,2.3.76A.19.19,0,0,1,2.47,1a.17.17,0,0,1-.07.13l-.48.39.15.65a.2.2,0,0,1-.15.23.17.17,0,0,1-.14,0L1.26,2l-.57.34a.18.18,0,0,1-.26-.06.16.16,0,0,1,0-.15h0l.16-.6L.06,1.09a.19.19,0,0,1,0-.26A.15.15,0,0,1,.18.76L.8.73,1.06.12A.18.18,0,0,1,1.31,0a.16.16,0,0,1,.1.1Z"/></g></g></svg>