<svg xmlns="http://www.w3.org/2000/svg" viewBox="0 0 7.42 11.98"><defs><style>.cls-1{fill:#037ad6;fill-rule:evenodd;}.cls-2{fill:none;stroke:#037ad6;stroke-linecap:round;stroke-linejoin:round;}</style></defs><title>Asset 1</title><g id="Layer_2" data-name="Layer 2"><g id="Layer_1-2" data-name="Layer 1"><path class="cls-1" d="M2.63,4.17a6.31,6.31,0,0,0,0,3.17l.64-.06a.37.37,0,0,1,.36.16l.94,1.31a.38.38,0,0,1,0,.43L3.09,11.77a.36.36,0,0,1-.3.2.4.4,0,0,1-.34-.11A8.6,8.6,0,0,1,2.17.13.42.42,0,0,1,2.47,0a.4.4,0,0,1,.29.12L4.34,1.75a.41.41,0,0,1,.11.36L4.13,3.67A.42.42,0,0,1,3.8,4l-1.17.18Z"/><path class="cls-2" d="M6.1,3.38a4.39,4.39,0,0,1,.16,4.87M5.1,4.53a2.15,2.15,0,0,1,.08,2.38"/></g></g></svg>